<svg xmlns="http://www.w3.org/2000/svg" xmlns:xlink="http://www.w3.org/1999/xlink" width="500" zoomAndPan="magnify" viewBox="0 0 375 149.999998" height="200" preserveAspectRatio="xMidYMid meet" version="1.2"><defs/><g id="ed3d1f6805"><g style="fill:#ffffff;fill-opacity:1;"><g transform="translate(23.450561, 89.624997)"><path style="stroke:none" d="M 15.90625 -19 C 16.46875 -17.664062 17.632812 -17 19.40625 -17 C 21.40625 -17 23.003906 -18 24.203125 -20 C 25.035156 -21.363281 25.453125 -23.097656 25.453125 -25.203125 C 25.453125 -28.296875 24.632812 -30.5625 23 -32 C 21.769531 -33.0625 20.203125 -33.59375 18.296875 -33.59375 C 17.867188 -33.59375 17.421875 -33.5625 16.953125 -33.5 L 13.59375 -33 L 13.59375 -3.65625 C 13.59375 -2.75 13.910156 -1.992188 14.546875 -1.390625 C 15.179688 -0.796875 15.929688 -0.5 16.796875 -0.5 L 17.453125 -0.5 L 17.453125 0 L 2.25 0 L 2.25 -0.5 L 2.90625 -0.5 C 3.769531 -0.5 4.507812 -0.796875 5.125 -1.390625 C 5.738281 -1.992188 6.0625 -2.75 6.09375 -3.65625 L 6.09375 -30.296875 C 6.0625 -31.160156 5.800781 -31.84375 5.3125 -32.34375 C 4.832031 -32.84375 4.128906 -33.09375 3.203125 -33.09375 C 2.960938 -33.09375 2.660156 -33.078125 2.296875 -33.046875 L 2.203125 -33.5 C 5.035156 -33.726562 8.007812 -34.117188 11.125 -34.671875 C 14.238281 -35.222656 16.285156 -35.566406 17.265625 -35.703125 C 18.253906 -35.835938 19.253906 -35.90625 20.265625 -35.90625 C 21.285156 -35.90625 22.507812 -35.796875 23.9375 -35.578125 C 25.375 -35.359375 26.84375 -34.875 28.34375 -34.125 C 29.84375 -33.375 31.0625 -32.265625 32 -30.796875 C 32.96875 -29.203125 33.453125 -27.394531 33.453125 -25.375 C 33.453125 -23.351562 33.082031 -21.578125 32.34375 -20.046875 C 30.945312 -17.117188 28.550781 -15.253906 25.15625 -14.453125 C 24.320312 -14.253906 23.53125 -14.15625 22.78125 -14.15625 C 22.03125 -14.15625 21.320312 -14.21875 20.65625 -14.34375 C 19.28125 -14.550781 18.125 -15.019531 17.1875 -15.75 C 16.257812 -16.476562 15.679688 -17.492188 15.453125 -18.796875 Z M 15.90625 -19 "/></g></g><g style="fill:#ffffff;fill-opacity:1;"><g transform="translate(59.395032, 89.624997)"><path style="stroke:none" d="M 16.59375 -22.34375 C 16 -23.613281 15.703125 -24.820312 15.703125 -25.96875 C 15.703125 -27.125 15.847656 -28.191406 16.140625 -29.171875 C 16.441406 -30.160156 16.941406 -31.128906 17.640625 -32.078125 C 18.347656 -33.023438 19.332031 -33.816406 20.59375 -34.453125 C 22.332031 -35.347656 24.414062 -35.796875 26.84375 -35.796875 C 30.050781 -35.796875 33.085938 -34.976562 35.953125 -33.34375 C 39.710938 -31.21875 42.328125 -28.269531 43.796875 -24.5 C 44.628906 -22.4375 45.046875 -20.21875 45.046875 -17.84375 C 45.046875 -12.28125 43.035156 -7.796875 39.015625 -4.390625 C 35.003906 -0.992188 29.773438 0.703125 23.328125 0.703125 C 16.878906 0.703125 11.628906 -0.992188 7.578125 -4.390625 C 3.523438 -7.796875 1.5 -12.265625 1.5 -17.796875 C 1.5 -21.929688 2.671875 -25.523438 5.015625 -28.578125 C 7.367188 -31.628906 10.546875 -33.703125 14.546875 -34.796875 L 14.84375 -34.34375 C 13.144531 -32.914062 11.863281 -30.816406 11 -28.046875 C 10.132812 -25.285156 9.703125 -22.300781 9.703125 -19.09375 C 9.703125 -13.695312 10.953125 -9.398438 13.453125 -6.203125 C 15.953125 -3.003906 19.222656 -1.40625 23.265625 -1.40625 C 27.316406 -1.40625 30.582031 -2.910156 33.0625 -5.921875 C 35.550781 -8.941406 36.796875 -12.9375 36.796875 -17.90625 C 36.796875 -20.90625 36.335938 -23.613281 35.421875 -26.03125 C 34.503906 -28.445312 33.175781 -30.3125 31.4375 -31.625 C 29.707031 -32.9375 27.78125 -33.59375 25.65625 -33.59375 C 23.28125 -33.59375 21.363281 -32.976562 19.90625 -31.75 C 17.832031 -29.976562 16.796875 -27.726562 16.796875 -25 C 16.796875 -24.132812 16.914062 -23.25 17.15625 -22.34375 Z M 16.59375 -22.34375 "/></g></g><g style="fill:#ffffff;fill-opacity:1;"><g transform="translate(105.287885, 89.624997)"><path style="stroke:none" d="M 46.71875 5.21875 C 47.269531 5.539062 47.894531 5.84375 48.59375 6.125 C 49.289062 6.40625 49.960938 6.601562 50.609375 6.71875 C 51.265625 6.84375 51.984375 6.90625 52.765625 6.90625 C 53.554688 6.90625 54.367188 6.800781 55.203125 6.59375 L 55.390625 7.09375 C 53.523438 8 51.644531 8.453125 49.75 8.453125 C 45.382812 8.453125 40.929688 6.035156 36.390625 1.203125 L 12.703125 -23.953125 L 12.703125 -3.5 C 12.703125 -2.664062 13 -1.957031 13.59375 -1.375 C 14.195312 -0.789062 14.914062 -0.5 15.75 -0.5 L 16.703125 -0.5 L 16.703125 0 L 1.546875 0 L 1.546875 -0.5 L 2.453125 -0.5 C 3.316406 -0.5 4.046875 -0.789062 4.640625 -1.375 C 5.242188 -1.957031 5.546875 -2.679688 5.546875 -3.546875 L 5.546875 -31.59375 C 3.910156 -33.46875 2.675781 -34.78125 1.84375 -35.53125 C 1.007812 -36.28125 0.269531 -36.90625 -0.375 -37.40625 C -1.03125 -37.90625 -1.65625 -38.320312 -2.25 -38.65625 C -3.65625 -39.445312 -4.78125 -39.910156 -5.625 -40.046875 C -6.476562 -40.179688 -7.28125 -40.25 -8.03125 -40.25 C -8.78125 -40.25 -9.585938 -40.097656 -10.453125 -39.796875 L -10.65625 -40.296875 C -8.820312 -41.367188 -6.9375 -41.90625 -5 -41.90625 C -0.800781 -41.90625 3.644531 -39.40625 8.34375 -34.40625 L 30.703125 -10.65625 L 30.703125 -31.453125 C 30.660156 -32.316406 30.335938 -33.039062 29.734375 -33.625 C 29.140625 -34.207031 28.425781 -34.5 27.59375 -34.5 L 26.703125 -34.5 L 26.703125 -35 L 41.84375 -35 L 41.84375 -34.5 L 40.890625 -34.5 C 40.054688 -34.5 39.335938 -34.207031 38.734375 -33.625 C 38.140625 -33.039062 37.828125 -32.332031 37.796875 -31.5 L 37.796875 -3.046875 L 38.59375 -2.25 C 38.789062 -2.050781 39.097656 -1.707031 39.515625 -1.21875 C 39.929688 -0.738281 40.304688 -0.328125 40.640625 0.015625 C 40.972656 0.367188 41.398438 0.8125 41.921875 1.34375 C 42.441406 1.882812 42.925781 2.351562 43.375 2.75 C 43.820312 3.144531 44.351562 3.578125 44.96875 4.046875 C 45.582031 4.515625 46.164062 4.90625 46.71875 5.21875 Z M 46.71875 5.21875 "/></g></g><g style="fill:#ffffff;fill-opacity:1;"><g transform="translate(148.531192, 89.624997)"><path style="stroke:none" d="M 52.796875 5.59375 C 51.492188 7.164062 50.050781 8.414062 48.46875 9.34375 C 46.882812 10.28125 45.375 10.878906 43.9375 11.140625 C 42.507812 11.410156 41.34375 11.546875 40.4375 11.546875 C 39.539062 11.546875 38.519531 11.507812 37.375 11.4375 C 36.226562 11.375 34.753906 11.101562 32.953125 10.625 C 31.148438 10.144531 29.28125 9.570312 27.34375 8.90625 C 25.414062 8.238281 23.566406 7.503906 21.796875 6.703125 C 20.035156 5.898438 18.238281 5.109375 16.40625 4.328125 C 14.570312 3.546875 12.867188 2.835938 11.296875 2.203125 C 7.828125 0.765625 4.925781 0.03125 2.59375 0 L 2.25 0 L 2.25 -0.453125 L 20.59375 -32.953125 L 8.5 -32.953125 C 6.96875 -32.921875 5.742188 -32.445312 4.828125 -31.53125 C 3.910156 -30.613281 3.453125 -29.382812 3.453125 -27.84375 L 3.453125 -27.25 L 2.953125 -27.25 L 2.953125 -35.953125 C 3.453125 -35.753906 4.328125 -35.550781 5.578125 -35.34375 C 6.828125 -35.144531 7.707031 -35.046875 8.21875 -35.046875 C 8.738281 -35.046875 9 -35.046875 9 -35.046875 L 24.953125 -35.046875 C 26.347656 -35.046875 27.53125 -35.128906 28.5 -35.296875 C 29.46875 -35.460938 30.035156 -35.597656 30.203125 -35.703125 L 30.203125 -35.25 L 10.703125 -0.40625 L 12.203125 -0.046875 C 13.367188 0.285156 15.160156 0.765625 17.578125 1.390625 C 19.992188 2.023438 21.722656 2.484375 22.765625 2.765625 C 23.816406 3.054688 25.351562 3.453125 27.375 3.953125 C 29.394531 4.453125 30.894531 4.800781 31.875 5 C 32.851562 5.195312 34.1875 5.460938 35.875 5.796875 C 37.5625 6.128906 38.867188 6.332031 39.796875 6.40625 C 42.398438 6.570312 44.054688 6.65625 44.765625 6.65625 C 45.484375 6.65625 46.195312 6.617188 46.90625 6.546875 C 49.101562 6.285156 50.953125 5.851562 52.453125 5.25 Z M 52.796875 5.59375 "/></g></g><g style="fill:#ffffff;fill-opacity:1;"><g transform="translate(174.97677, 89.624997)"><path style="stroke:none" d="M 48.296875 9.15625 C 44.660156 10.988281 40.976562 11.285156 37.25 10.046875 C 33.28125 8.785156 29.863281 6.085938 27 1.953125 C 25.46875 -0.242188 24.148438 -2.796875 23.046875 -5.703125 L 21.453125 -9.953125 L 9.640625 -9.953125 L 7 -3.65625 C 6.832031 -3.21875 6.75 -2.863281 6.75 -2.59375 C 6.75 -2.332031 6.804688 -2.039062 6.921875 -1.71875 C 7.035156 -1.40625 7.285156 -1.125 7.671875 -0.875 C 8.054688 -0.625 8.484375 -0.5 8.953125 -0.5 L 9.34375 -0.5 L 9.34375 0 L -1.359375 0 L -1.359375 -0.5 L -0.90625 -0.5 C -0.132812 -0.5 0.625 -0.722656 1.375 -1.171875 C 2.125 -1.617188 2.75 -2.296875 3.25 -3.203125 L 14.390625 -28.65625 C 13.097656 -31.582031 11.71875 -33.597656 10.25 -34.703125 C 9.007812 -35.628906 7.832031 -36.09375 6.71875 -36.09375 C 5.601562 -36.09375 4.5625 -35.925781 3.59375 -35.59375 L 3.5 -36.09375 C 5.894531 -37.332031 8.191406 -37.953125 10.390625 -37.953125 C 13.128906 -37.953125 15.582031 -36.882812 17.75 -34.75 C 19.882812 -32.644531 21.765625 -29.613281 23.390625 -25.65625 L 30.640625 -7.75 C 33.378906 -0.976562 36.179688 3.671875 39.046875 6.203125 C 40.210938 7.234375 41.410156 7.945312 42.640625 8.34375 C 43.878906 8.75 44.921875 8.953125 45.765625 8.953125 C 46.617188 8.953125 47.445312 8.851562 48.25 8.65625 Z M 10.5 -12.09375 L 20.703125 -12.09375 L 17.203125 -21.34375 C 17.035156 -21.8125 16.800781 -22.453125 16.5 -23.265625 C 16.195312 -24.085938 15.992188 -24.664062 15.890625 -25 Z M 10.5 -12.09375 "/></g></g><g style="fill:#ffffff;fill-opacity:1;"><g transform="translate(215.976464, 92.624997)"><path style="stroke:none" d="M 6.40625 -35 L 8.09375 -35 L 8.09375 -1.546875 L 28.59375 -1.546875 L 28.59375 0 L 6.40625 0 Z M 6.40625 -35 "/></g></g><g style="fill:#ffffff;fill-opacity:1;"><g transform="translate(245.071956, 92.624997)"><path style="stroke:none" d=""/></g></g><g style="fill:#ffffff;fill-opacity:1;"><g transform="translate(257.719999, 92.624997)"><path style="stroke:none" d="M 27.84375 -10.25 L 6.90625 -10.25 L 2.203125 0 L 0.34375 0 L 16.546875 -35 L 18.203125 -35 L 34.40625 0 L 32.546875 0 Z M 27.203125 -11.703125 L 17.40625 -33.046875 L 7.546875 -11.703125 Z M 27.203125 -11.703125 "/></g></g><g style="fill:#ffffff;fill-opacity:1;"><g transform="translate(292.514614, 92.624997)"><path style="stroke:none" d=""/></g></g><g style="fill:#ffffff;fill-opacity:1;"><g transform="translate(305.162657, 92.624997)"><path style="stroke:none" d="M 26.046875 -18 C 28.785156 -17.5625 30.851562 -16.601562 32.25 -15.125 C 33.644531 -13.644531 34.34375 -11.671875 34.34375 -9.203125 C 34.34375 -6.203125 33.273438 -3.914062 31.140625 -2.34375 C 29.015625 -0.78125 25.832031 0 21.59375 0 L 6.40625 0 L 6.40625 -35 L 20.59375 -35 C 24.300781 -35 27.203125 -34.234375 29.296875 -32.703125 C 31.398438 -31.171875 32.453125 -28.96875 32.453125 -26.09375 C 32.453125 -24 31.882812 -22.265625 30.75 -20.890625 C 29.613281 -19.523438 28.046875 -18.5625 26.046875 -18 Z M 8.09375 -33.5 L 8.09375 -18.5 L 20.65625 -18.5 C 23.882812 -18.5 26.378906 -19.140625 28.140625 -20.421875 C 29.910156 -21.703125 30.796875 -23.5625 30.796875 -26 C 30.796875 -28.4375 29.910156 -30.296875 28.140625 -31.578125 C 26.378906 -32.859375 23.882812 -33.5 20.65625 -33.5 Z M 21.703125 -1.5 C 25.335938 -1.5 28.070312 -2.128906 29.90625 -3.390625 C 31.738281 -4.660156 32.65625 -6.613281 32.65625 -9.25 C 32.65625 -11.914062 31.738281 -13.878906 29.90625 -15.140625 C 28.070312 -16.410156 25.335938 -17.046875 21.703125 -17.046875 L 8.09375 -17.046875 L 8.09375 -1.5 Z M 21.703125 -1.5 "/></g></g></g></svg>